<svg width="118" height="18" viewBox="0 0 118 18" fill="none" xmlns="http://www.w3.org/2000/svg">
<path d="M30.0043 7C29.8793 6.61742 29.7145 6.27462 29.5099 5.97159C29.3092 5.66477 29.0687 5.40341 28.7884 5.1875C28.5118 4.97159 28.1974 4.80682 27.8452 4.69318C27.4929 4.57955 27.1065 4.52273 26.6861 4.52273C25.9967 4.52273 25.3698 4.70076 24.8054 5.05682C24.241 5.41288 23.7921 5.9375 23.4588 6.63068C23.1255 7.32386 22.9588 8.17424 22.9588 9.18182C22.9588 10.1894 23.1274 11.0398 23.4645 11.733C23.8016 12.4261 24.258 12.9508 24.8338 13.3068C25.4096 13.6629 26.0573 13.8409 26.777 13.8409C27.4437 13.8409 28.0308 13.6989 28.5384 13.4148C29.0497 13.1269 29.4474 12.7216 29.7315 12.1989C30.0194 11.6723 30.1634 11.053 30.1634 10.3409L30.5952 10.4318H27.0952V9.18182H31.527V10.4318C31.527 11.3902 31.3224 12.2235 30.9134 12.9318C30.508 13.6402 29.9474 14.1894 29.2315 14.5795C28.5194 14.9659 27.7012 15.1591 26.777 15.1591C25.7467 15.1591 24.8414 14.9167 24.0611 14.4318C23.2846 13.947 22.6785 13.2576 22.2429 12.3636C21.8111 11.4697 21.5952 10.4091 21.5952 9.18182C21.5952 8.26136 21.7183 7.43371 21.9645 6.69886C22.2145 5.96023 22.5668 5.33144 23.0213 4.8125C23.4759 4.29356 24.0137 3.89583 24.6349 3.61932C25.2562 3.3428 25.9399 3.20455 26.6861 3.20455C27.2997 3.20455 27.8717 3.29735 28.402 3.48295C28.9361 3.66477 29.4115 3.92424 29.8281 4.26136C30.2486 4.5947 30.599 4.99432 30.8793 5.46023C31.1596 5.92235 31.3527 6.43561 31.4588 7H30.0043ZM39.2585 11.4318V6.27273H40.5994V15H39.2585V13.5227H39.1676C38.9631 13.9659 38.6449 14.3428 38.2131 14.6534C37.7813 14.9602 37.2358 15.1136 36.5767 15.1136C36.0312 15.1136 35.5464 14.9943 35.1222 14.7557C34.6979 14.5133 34.3646 14.1496 34.1222 13.6648C33.8797 13.1761 33.7585 12.5606 33.7585 11.8182V6.27273H35.0994V11.7273C35.0994 12.3636 35.2775 12.8712 35.6335 13.25C35.9934 13.6288 36.4517 13.8182 37.0085 13.8182C37.3419 13.8182 37.6809 13.733 38.0256 13.5625C38.3741 13.392 38.6657 13.1307 38.9006 12.7784C39.1392 12.4261 39.2585 11.9773 39.2585 11.4318ZM43.0554 15V6.27273H44.3963V15H43.0554ZM43.7372 4.81818C43.4759 4.81818 43.2505 4.72917 43.0611 4.55114C42.8755 4.37311 42.7827 4.15909 42.7827 3.90909C42.7827 3.65909 42.8755 3.44508 43.0611 3.26705C43.2505 3.08902 43.4759 3 43.7372 3C43.9986 3 44.2221 3.08902 44.4077 3.26705C44.5971 3.44508 44.6918 3.65909 44.6918 3.90909C44.6918 4.15909 44.5971 4.37311 44.4077 4.55114C44.2221 4.72917 43.9986 4.81818 43.7372 4.81818ZM48.1932 3.36364V15H46.8523V3.36364H48.1932ZM51.9901 9.75V15H50.6491V3.36364H51.9901V7.63636H52.1037C52.3082 7.18561 52.6151 6.82765 53.0241 6.5625C53.437 6.29356 53.9863 6.15909 54.6719 6.15909C55.2666 6.15909 55.7874 6.27841 56.2344 6.51705C56.6813 6.75189 57.0279 7.11364 57.2741 7.60227C57.5241 8.08712 57.6491 8.70455 57.6491 9.45455V15H56.3082V9.54545C56.3082 8.85227 56.1283 8.31629 55.7685 7.9375C55.4124 7.55492 54.9181 7.36364 54.2855 7.36364C53.8461 7.36364 53.4522 7.45644 53.1037 7.64205C52.759 7.82765 52.4863 8.09848 52.2855 8.45455C52.0885 8.81061 51.9901 9.24242 51.9901 9.75ZM63.7614 15.1818C62.9205 15.1818 62.1951 14.9962 61.5852 14.625C60.9792 14.25 60.5114 13.7273 60.1818 13.0568C59.8561 12.3826 59.6932 11.5985 59.6932 10.7045C59.6932 9.81061 59.8561 9.02273 60.1818 8.34091C60.5114 7.6553 60.9697 7.12121 61.5568 6.73864C62.1477 6.35227 62.8371 6.15909 63.625 6.15909C64.0795 6.15909 64.5284 6.23485 64.9716 6.38636C65.4148 6.53788 65.8182 6.78409 66.1818 7.125C66.5455 7.46212 66.8352 7.90909 67.0511 8.46591C67.267 9.02273 67.375 9.70833 67.375 10.5227V11.0909H60.6477V9.93182H66.0114C66.0114 9.43939 65.9129 9 65.7159 8.61364C65.5227 8.22727 65.2462 7.92235 64.8864 7.69886C64.5303 7.47538 64.1098 7.36364 63.625 7.36364C63.0909 7.36364 62.6288 7.49621 62.2386 7.76136C61.8523 8.02273 61.5549 8.36364 61.3466 8.78409C61.1383 9.20455 61.0341 9.6553 61.0341 10.1364V10.9091C61.0341 11.5682 61.1477 12.1269 61.375 12.5852C61.6061 13.0398 61.9261 13.3864 62.3352 13.625C62.7443 13.8598 63.2197 13.9773 63.7614 13.9773C64.1136 13.9773 64.4318 13.928 64.7159 13.8295C65.0038 13.7273 65.2519 13.5758 65.4602 13.375C65.6686 13.1705 65.8295 12.9167 65.9432 12.6136L67.2386 12.9773C67.1023 13.4167 66.8731 13.803 66.5511 14.1364C66.2292 14.4659 65.8314 14.7235 65.358 14.9091C64.8845 15.0909 64.3523 15.1818 63.7614 15.1818ZM69.4148 15V6.27273H70.7102V7.59091H70.8011C70.9602 7.15909 71.2481 6.80871 71.6648 6.53977C72.0814 6.27083 72.5511 6.13636 73.0739 6.13636C73.1723 6.13636 73.2955 6.13826 73.4432 6.14205C73.5909 6.14583 73.7027 6.15152 73.7784 6.15909V7.52273C73.733 7.51136 73.6288 7.49432 73.4659 7.47159C73.3068 7.44508 73.1383 7.43182 72.9602 7.43182C72.536 7.43182 72.1572 7.52083 71.8239 7.69886C71.4943 7.87311 71.233 8.11553 71.0398 8.42614C70.8504 8.73295 70.7557 9.08333 70.7557 9.47727V15H69.4148ZM75.3679 15V6.27273H76.6634V7.63636H76.777C76.9588 7.17045 77.2524 6.80871 77.6577 6.55114C78.063 6.28977 78.5497 6.15909 79.1179 6.15909C79.6937 6.15909 80.1728 6.28977 80.5554 6.55114C80.9418 6.80871 81.2429 7.17045 81.4588 7.63636H81.5497C81.7732 7.18561 82.1084 6.82765 82.5554 6.5625C83.0024 6.29356 83.5384 6.15909 84.1634 6.15909C84.9437 6.15909 85.5819 6.40341 86.0781 6.89205C86.5743 7.37689 86.8224 8.13258 86.8224 9.15909V15H85.4815V9.15909C85.4815 8.51515 85.3054 8.05492 84.9531 7.77841C84.6009 7.50189 84.1861 7.36364 83.7088 7.36364C83.0952 7.36364 82.6198 7.54924 82.2827 7.92045C81.9455 8.28788 81.777 8.75379 81.777 9.31818V15H80.4134V9.02273C80.4134 8.52652 80.2524 8.12689 79.9304 7.82386C79.6084 7.51705 79.1937 7.36364 78.6861 7.36364C78.3376 7.36364 78.0118 7.45644 77.7088 7.64205C77.4096 7.82765 77.1671 8.08523 76.9815 8.41477C76.7997 8.74053 76.7088 9.11742 76.7088 9.54545V15H75.3679ZM92.9332 15.1818C92.0923 15.1818 91.367 14.9962 90.7571 14.625C90.151 14.25 89.6832 13.7273 89.3537 13.0568C89.0279 12.3826 88.8651 11.5985 88.8651 10.7045C88.8651 9.81061 89.0279 9.02273 89.3537 8.34091C89.6832 7.6553 90.1416 7.12121 90.7287 6.73864C91.3196 6.35227 92.009 6.15909 92.7969 6.15909C93.2514 6.15909 93.7003 6.23485 94.1435 6.38636C94.5866 6.53788 94.9901 6.78409 95.3537 7.125C95.7173 7.46212 96.0071 7.90909 96.223 8.46591C96.4389 9.02273 96.5469 9.70833 96.5469 10.5227V11.0909H89.8196V9.93182H95.1832C95.1832 9.43939 95.0848 9 94.8878 8.61364C94.6946 8.22727 94.4181 7.92235 94.0582 7.69886C93.7022 7.47538 93.2817 7.36364 92.7969 7.36364C92.2628 7.36364 91.8007 7.49621 91.4105 7.76136C91.0241 8.02273 90.7268 8.36364 90.5185 8.78409C90.3101 9.20455 90.206 9.6553 90.206 10.1364V10.9091C90.206 11.5682 90.3196 12.1269 90.5469 12.5852C90.7779 13.0398 91.098 13.3864 91.5071 13.625C91.9162 13.8598 92.3916 13.9773 92.9332 13.9773C93.2855 13.9773 93.6037 13.928 93.8878 13.8295C94.1757 13.7273 94.4238 13.5758 94.6321 13.375C94.8404 13.1705 95.0014 12.9167 95.1151 12.6136L96.4105 12.9773C96.2741 13.4167 96.045 13.803 95.723 14.1364C95.401 14.4659 95.0033 14.7235 94.5298 14.9091C94.0563 15.0909 93.5241 15.1818 92.9332 15.1818Z" fill="black"/>
</svg>
