<svg width="50" height="50" viewBox="0 0 50 50" fill="none" xmlns="http://www.w3.org/2000/svg">
<path d="M28.4183 23C28.2933 22.6174 28.1286 22.2746 27.924 21.9716C27.7232 21.6648 27.4827 21.4034 27.2024 21.1875C26.9259 20.9716 26.6115 20.8068 26.2592 20.6932C25.907 20.5795 25.5206 20.5227 25.1001 20.5227C24.4107 20.5227 23.7839 20.7008 23.2195 21.0568C22.6551 21.4129 22.2062 21.9375 21.8729 22.6307C21.5395 23.3239 21.3729 24.1742 21.3729 25.1818C21.3729 26.1894 21.5414 27.0398 21.8786 27.733C22.2157 28.4261 22.6721 28.9508 23.2479 29.3068C23.8236 29.6629 24.4714 29.8409 25.1911 29.8409C25.8577 29.8409 26.4448 29.6989 26.9524 29.4148C27.4638 29.1269 27.8615 28.7216 28.1456 28.1989C28.4335 27.6723 28.5774 27.053 28.5774 26.3409L29.0092 26.4318H25.5092V25.1818H29.9411V26.4318C29.9411 27.3902 29.7365 28.2235 29.3274 28.9318C28.9221 29.6402 28.3615 30.1894 27.6456 30.5795C26.9335 30.9659 26.1153 31.1591 25.1911 31.1591C24.1607 31.1591 23.2554 30.9167 22.4751 30.4318C21.6986 29.947 21.0926 29.2576 20.657 28.3636C20.2251 27.4697 20.0092 26.4091 20.0092 25.1818C20.0092 24.2614 20.1323 23.4337 20.3786 22.6989C20.6286 21.9602 20.9808 21.3314 21.4354 20.8125C21.8899 20.2936 22.4278 19.8958 23.049 19.6193C23.6702 19.3428 24.3539 19.2045 25.1001 19.2045C25.7138 19.2045 26.2857 19.2973 26.8161 19.483C27.3501 19.6648 27.8255 19.9242 28.2422 20.2614C28.6626 20.5947 29.013 20.9943 29.2933 21.4602C29.5736 21.9223 29.7668 22.4356 29.8729 23H28.4183Z" fill="#ACACAC" fill-opacity="0.85"/>
</svg>
