<svg width="41" height="40" viewBox="0 0 41 40" fill="none" xmlns="http://www.w3.org/2000/svg">
<path d="M25.6275 17C25.44 16.4261 25.1928 15.9119 24.886 15.4574C24.5849 14.9972 24.2241 14.6051 23.8036 14.2812C23.3889 13.9574 22.9173 13.7102 22.3888 13.5398C21.8604 13.3693 21.2809 13.2841 20.6502 13.2841C19.6161 13.2841 18.6758 13.5511 17.8292 14.0852C16.9826 14.6193 16.3093 15.4062 15.8093 16.446C15.3093 17.4858 15.0593 18.7614 15.0593 20.2727C15.0593 21.7841 15.3121 23.0597 15.8178 24.0994C16.3235 25.1392 17.0082 25.9261 17.8718 26.4602C18.7354 26.9943 19.707 27.2614 20.7866 27.2614C21.7866 27.2614 22.6673 27.0483 23.4286 26.6222C24.1957 26.1903 24.7923 25.5824 25.2184 24.7983C25.6502 24.0085 25.8661 23.0795 25.8661 22.0114L26.5139 22.1477H21.2638V20.2727H27.9116V22.1477C27.9116 23.5852 27.6048 24.8352 26.9911 25.8977C26.3832 26.9602 25.5423 27.7841 24.4684 28.3693C23.4002 28.9489 22.1729 29.2386 20.7866 29.2386C19.2411 29.2386 17.8832 28.875 16.7127 28.1477C15.5479 27.4205 14.6388 26.3864 13.9854 25.0455C13.3377 23.7045 13.0138 22.1136 13.0138 20.2727C13.0138 18.892 13.1985 17.6506 13.5678 16.5483C13.9428 15.4403 14.4712 14.4972 15.1531 13.7188C15.8349 12.9403 16.6417 12.3438 17.5735 11.929C18.5053 11.5142 19.5309 11.3068 20.6502 11.3068C21.5707 11.3068 22.4286 11.446 23.2241 11.7244C24.0252 11.9972 24.7383 12.3864 25.3633 12.892C25.994 13.392 26.5195 13.9915 26.94 14.6903C27.3604 15.3835 27.6502 16.1534 27.8093 17H25.6275Z" fill="#8C8C8C"/>
<path d="M20 1H21C31.4934 1 40 9.50659 40 20C40 30.4934 31.4934 39 21 39H20C9.50659 39 1 30.4934 1 20C1 9.50659 9.50659 1 20 1Z" stroke="#0B8235" stroke-width="2"/>
</svg>
