<?xml version="1.0" standalone="no"?>
<!DOCTYPE svg PUBLIC "-//W3C//DTD SVG 20010904//EN"
 "http://www.w3.org/TR/2001/REC-SVG-20010904/DTD/svg10.dtd">
<svg version="1.0" xmlns="http://www.w3.org/2000/svg"
 width="131.000000pt" height="104.000000pt" viewBox="0 0 131.000000 104.000000"
 preserveAspectRatio="xMidYMid meet">

<g transform="translate(0.000000,104.000000) scale(0.100000,-0.100000)"
fill="#000000" stroke="none">
<path d="M302 854 c-29 -7 -67 -21 -84 -30 -59 -30 -134 -112 -164 -177 -26
-54 -29 -73 -29 -157 0 -84 3 -102 29 -158 37 -80 122 -161 203 -193 43 -17
79 -23 138 -23 70 0 90 4 147 31 109 51 108 49 108 218 0 187 1 185 -138 185
-112 0 -142 -13 -142 -60 0 -42 32 -60 107 -60 l63 0 0 -80 0 -81 -42 -19
c-49 -23 -131 -26 -192 -8 -60 18 -148 109 -165 170 -27 96 -2 194 67 263 53
53 88 68 172 73 71 4 79 2 144 -32 41 -22 77 -34 88 -30 24 7 41 41 34 69 -12
48 -164 116 -256 114 -19 0 -59 -7 -88 -15z"/>
<path d="M761 851 c-20 -20 -21 -30 -21 -361 0 -327 1 -341 20 -360 25 -25 45
-25 70 0 18 18 20 33 20 149 l0 129 118 3 c111 4 122 6 168 34 30 19 60 49 79
79 25 42 30 59 30 116 0 57 -5 74 -30 116 -19 30 -49 60 -79 79 -48 29 -52 30
-202 33 -143 4 -153 3 -173 -17z m339 -130 c52 -51 52 -111 0 -162 -28 -28
-31 -29 -139 -29 l-111 0 0 110 0 110 111 0 c108 0 111 -1 139 -29z"/>
</g>
</svg>
